<?xml version="1.0" encoding="utf-8"?>
<!-- Generator: Adobe Illustrator 19.0.0, SVG Export Plug-In . SVG Version: 6.00 Build 0)  -->
<svg version="1.1" xmlns="http://www.w3.org/2000/svg" xmlns:xlink="http://www.w3.org/1999/xlink" x="0px" y="0px"
	 viewBox="0 0 1017 762" style="enable-background:new 0 0 1017 762;" xml:space="preserve">
<style type="text/css">
	.st0{enable-background:new    ;}
	.st1{fill-rule:evenodd;clip-rule:evenodd;fill:url(#SVGID_1_);}
	.st2{fill-rule:evenodd;clip-rule:evenodd;fill:url(#SVGID_2_);}
	.st3{fill-rule:evenodd;clip-rule:evenodd;fill:#FFE5F1;}
	.st4{fill-rule:evenodd;clip-rule:evenodd;fill:#FF6DB1;}
	.st5{fill-rule:evenodd;clip-rule:evenodd;fill:#FFF1DD;}
	.st6{fill-rule:evenodd;clip-rule:evenodd;fill:#FFC570;}
</style>
<g id="Shape_3_1_" class="st0">
	<g id="Shape_3">
		<g>
			<linearGradient id="SVGID_1_" gradientUnits="userSpaceOnUse" x1="867.6839" y1="63.2643" x2="566.8295" y2="483.4933">
				<stop  offset="6.403941e-002" style="stop-color:#A3A9F1"/>
				<stop  offset="0.665" style="stop-color:#6A72E4"/>
			</linearGradient>
			<path class="st1" d="M806.5,256.5C806.5,155.1,933.8,54,832.4,54S270,133.6,270,235c0,101.4,573.3,374,674.6,374
				S806.5,357.9,806.5,256.5z"/>
		</g>
	</g>
</g>
<g id="Shape_2_1_" class="st0">
	<g id="Shape_2">
		<g>
			<linearGradient id="SVGID_2_" gradientUnits="userSpaceOnUse" x1="636.3817" y1="69.9968" x2="636.3817" y2="721.2309">
				<stop  offset="0" style="stop-color:#82DDFC"/>
				<stop  offset="1" style="stop-color:#0181F6"/>
			</linearGradient>
			<path class="st2" d="M907.3,376.5c-347.7-82-293.1-286-429.2-305.3C341.9,52,341.6,256.2,341.6,392.4
				c0,136.1-127.6,262.4-15.8,321.5v0C437.7,773,1255,458.5,907.3,376.5z"/>
		</g>
	</g>
</g>
<g id="Shape_5_1_" class="st0">
	<g id="Shape_5">
		<g>
			<path class="st3" d="M791.9,585.2c5.3-0.7,9.3,2.8,12.3,9C803.6,580.6,791.1,582.7,791.9,585.2z M804.2,594.2
				c0.1,3.2-0.4,7.4-2,12.6c-12.3-12-177.4-25.4-174.1-4.5c-14.9-24.7-3.4,86.7-1.6,97.6c-14.2,13,163.4,21.5,180.9,24.4
				C811.3,704.3,817.6,621.9,804.2,594.2z M807.4,724.3c0,0.2-0.1,0.5-0.1,0.7C809.3,724.8,809.2,724.6,807.4,724.3z"/>
		</g>
	</g>
</g>
<g id="Shape_4_1_" class="st0">
	<g id="Shape_4">
		<g>
			<path class="st4" d="M610.7,568.8c1.6-0.3,3.2-0.5,4.9-0.8C613.9,568.3,612.3,568.5,610.7,568.8z M759.9,560.2
				c5.3-0.7,9.3,2.8,12.3,9C771.6,555.6,759.1,557.7,759.9,560.2z M775.4,699.3c0,0.2-0.1,0.5-0.1,0.7
				C777.3,699.8,777.2,699.6,775.4,699.3z M777.9,590.7c4.3,29.2,2,72.1-0.7,95.8c8.2,2.2,14,5.1,16.3,8.9
				C790.7,677.4,790.1,609.4,777.9,590.7z M596.4,673.3c-0.7,0.6-1.4,0.9-2,1.1c0,0.2,0.1,0.4,0.1,0.6
				c-14.2,13,163.4,21.5,180.9,24.4c0.6-3,1.2-7.4,1.8-12.8C728.9,673.6,597,685.1,596.4,673.3z M777.9,590.7
				c-1.3-8.6-3.1-16.1-5.7-21.4c0.1,3.2-0.4,7.4-2,12.6c-1-1-3-2-5.9-3l3,8C771.6,584.6,775.1,586.3,777.9,590.7z M596.1,577.3
				c-0.6-4,5-6.8,14.6-8.5c-18.9,3.1-32.1,7.2-33.2,12.6c20.4-1.7,3,97.2,17,93C592.4,660.8,581.5,553,596.1,577.3z M764.3,578.9
				l-6-16.4c20.8-2.6-83.7-3.1-142.7,5.5C654.5,562.9,739.9,570.5,764.3,578.9z"/>
		</g>
	</g>
</g>
<g id="Shape_7_1_" class="st0">
	<g id="Shape_7">
		<g>
			<path class="st5" d="M202.7,130.4c-0.6-4.1-0.4-8.7-1.6-12.6c-1.3-3.9-4.1-7.6-6-11.2c-1.9-3.7-3.5-7.8-5.9-11.2
				c-2.4-3.3-8.2-3.8-11.1-6.7c-2.9-2.9-2.9-9.4-6.2-11.8c-1.3-0.9-3-1.1-4.9-1.1c-0.7,0-1.4,0-2.1,0.1c-0.7,0-1.4,0.1-2.1,0.1
				c-1.6,0-3.1-0.1-4.3-0.8c-3.6-1.9-5.7-7.4-9.7-8.7c-0.7-0.2-1.4-0.3-2.2-0.3c-1.5,0-3.1,0.4-4.7,0.7c-1.6,0.4-3.2,0.7-4.7,0.7
				c-0.4,0-0.9,0-1.3-0.1c-4-0.6-7.8-0.9-12-0.9l0,0c-4.2,0-7.8,1.3-11.8,2c-0.3,0.1-0.6,0.1-1,0.1c-1.7,0-3.4-0.6-5.2-1.1
				c-1.8-0.6-3.5-1.1-5.1-1.1c-0.6,0-1.2,0.1-1.7,0.3c-3.9,1.3-8.1,2.8-11.8,4.6c-3.7,1.9-7.6,4.1-10.9,6.5C73,80,70.8,84.1,67.9,87
				c-2.9,2.9-4.3,7.1-6.7,10.4c-2.4,3.3-3.3,7.3-5.2,10.9c-1.9,3.6-2.5,7.4-3.7,11.3c-1.3,3.9-4.4,7-5,11.1c-0.6,4-2.3,7.9-2.3,12.1
				c0,4.2,0.7,8.3,1.3,12.3c0.6,4.1-0.8,8.9,0.5,12.8c1.3,3.9,3,8.1,4.8,11.8c1.9,3.7,6.8,5.7,9.2,9c2.4,3.3,4.5,7,7.4,9.9
				c2.9,2.9,5.4,6.5,8.7,8.9c3.3,2.4,8.6,1.5,12.3,3.4c3.6,1.9,6.1,6.3,10.1,7.6c1.3,0.4,2.6,0.5,3.9,0.5c1,0,2-0.1,3.1-0.1
				c1-0.1,2.1-0.1,3.1-0.1c0.8,0,1.7,0,2.5,0.2c4,0.6,7.9,4.1,12,4.1s8.4-1,12.4-1.6c4.1-0.6,8-2.5,11.8-3.7
				c3.9-1.3,6.8-4.7,10.5-6.5c3.7-1.9,6.4-4.6,9.7-7c3.3-2.4,7.5-3.4,10.4-6.3c2.9-2.9,8.9-3.4,11.4-6.7c2.4-3.3,1.9-8.8,3.8-12.4
				c1.9-3.6,2.8-7.7,4-11.6c1.3-3.9,2.2-7.8,2.9-11.9c0.6-4,3.3-8,3.3-12.2C204,138.7,203.4,134.4,202.7,130.4z"/>
		</g>
	</g>
</g>
<g id="Shape_6_1_" class="st0">
	<g id="Shape_6">
		<g>
			<path class="st6" d="M232.5,121.5c0.6-4,1.6-7.8,1.6-12c0-4.2-1.5-7.9-2.1-12c-0.6-4.1-0.1-8.2-1.2-12.1c-1.2-4-2.8-7.6-4.5-11.3
				c-1.7-3.8-1.6-8.5-3.8-11.9c-2.3-3.5-4.8-6.8-7.5-10c-2.7-3.1-6.2-5.6-9.3-8.3c-3.1-2.7-8.2-2.4-11.7-4.6
				c-3.5-2.2-4.9-7.9-8.7-9.6c-3.7-1.7-7.2-5.1-11.2-6.3c-3.9-1.2-8.5-1.2-12.6-1.8c-4-0.6-8.4,1.1-12.6,1.1
				c-4.2,0-8.2,1.2-12.2,1.7c-4.1,0.6-7.9,2.1-11.8,3.3c-4,1.2-9-0.3-12.7,1.4c-3.8,1.7-6.2,5.9-9.7,8.2c-3.5,2.2-8.8,2.2-11.9,4.9
				c-3.1,2.7-3.6,8.2-6.3,11.3c-2.7,3.1-6,5.7-8.2,9.2c-2.2,3.5-4.9,6.7-6.7,10.5c-1.7,3.7-0.2,8.6-1.4,12.6
				c-1.2,3.9-2,7.6-2.6,11.7c-0.6,4-3.4,7.8-3.4,12c0,4.2,0.7,8.3,1.2,12.3c0.6,4.1,0.2,8.5,1.4,12.4c1.2,4,0.6,9,2.3,12.7
				c1.7,3.8,4.7,7.3,6.9,10.8c2.2,3.5,5.9,6.2,8.6,9.3c2.7,3.1,6.9,4.9,10,7.6c3.1,2.7,7.3,3.7,10.8,6c3.5,2.2,6.7,4.2,10.5,6
				c3.7,1.7,7.3,3.3,11.2,4.5c3.9,1.2,7,6.9,11.1,7.5c4,0.6,8.6-0.1,12.8-0.1l0,0c4.2,0,8.4-1.8,12.4-2.4c4.1-0.6,7.7-3.4,11.6-4.5
				c4-1.2,8.5-0.7,12.2-2.5c3.8-1.7,9-1.5,12.4-3.7c3.5-2.2,6.3-6,9.4-8.7c3.1-2.7,3.2-8.5,5.9-11.6c2.7-3.1,8.7-3.8,10.9-7.3
				c2.2-3.5-0.6-9.7,1.1-13.5c1.7-3.7,7.8-5.8,8.9-9.8C235,130.5,231.9,125.6,232.5,121.5z M225.8,121.6c-0.6,4-1.6,8-2.9,11.9
				c-1.3,3.9-2.2,8-4,11.6c-1.9,3.7-1.4,9.1-3.8,12.5c-2.4,3.3-8.5,3.8-11.4,6.7c-2.9,2.9-7.1,3.9-10.4,6.3c-3.3,2.4-6,5.2-9.7,7
				c-3.6,1.9-6.5,5.3-10.5,6.5c-3.9,1.3-7.7,3.1-11.9,3.7c-4,0.6-8.2,1.6-12.4,1.6c-4.2,0-8-3.5-12-4.1c-4.1-0.6-8.6,0.8-12.5-0.4
				c-3.9-1.3-6.4-5.8-10.1-7.6c-3.7-1.9-9-1-12.3-3.4c-3.3-2.4-5.8-6-8.7-8.9c-2.9-2.9-5-6.5-7.4-9.9c-2.4-3.3-7.3-5.3-9.2-9
				c-1.9-3.6-3.6-7.8-4.8-11.8c-1.3-3.9,0.2-8.6-0.5-12.8c-0.6-4-1.3-8.1-1.3-12.3c0-4.2,1.6-8.1,2.3-12.1c0.6-4.1,3.8-7.2,5-11.1
				c1.3-3.9,1.9-7.7,3.7-11.3c1.9-3.7,2.8-7.6,5.2-10.9c2.4-3.3,3.8-7.5,6.7-10.5c2.9-2.9,5.1-7,8.4-9.4c3.3-2.4,7.2-4.6,10.9-6.5
				c3.6-1.9,7.8-3.3,11.8-4.6c3.9-1.3,8.9,2.6,13,2c4-0.6,7.6-2,11.8-2h0c4.2,0,8,0.3,12,0.9c4.1,0.6,9-2.3,12.9-1
				c3.9,1.3,6.1,6.9,9.7,8.7c3.7,1.9,10.1-0.6,13.4,1.8c3.3,2.4,3.3,8.9,6.2,11.8c2.9,2.9,8.7,3.4,11.1,6.7
				c2.4,3.3,4.1,7.5,5.9,11.2c1.9,3.6,4.7,7.3,6,11.2c1.3,3.9,1,8.5,1.6,12.6c0.6,4,1.3,8.3,1.3,12.5
				C229.1,113.6,226.4,117.6,225.8,121.6z"/>
		</g>
	</g>
</g>
</svg>
