<?xml version="1.0" encoding="utf-8"?>
<!-- Generator: Adobe Illustrator 19.0.0, SVG Export Plug-In . SVG Version: 6.00 Build 0)  -->
<svg version="1.1" id="OBJECTS" xmlns="http://www.w3.org/2000/svg" xmlns:xlink="http://www.w3.org/1999/xlink" x="0px" y="0px"
	 viewBox="0 0 750 500" style="enable-background:new 0 0 750 500;" xml:space="preserve">
<style type="text/css">
	
		.st0{fill:none;stroke:#80A5F9;stroke-width:1.0183;stroke-linecap:round;stroke-linejoin:round;stroke-miterlimit:10;stroke-dasharray:2.0366,7.128;}
	.st1{fill:#5B84F8;}
	.st2{fill:#4174E5;}
	.st3{fill:#80A5F9;}
	.st4{fill:#06D2FF;}
	.st5{fill:#FFFFFF;}
	.st6{fill:#FFD943;}
	.st7{fill:none;stroke:#FFFFFF;stroke-width:1.4507;stroke-linecap:round;stroke-linejoin:round;stroke-miterlimit:10;}
	.st8{fill:#4084FB;}
	.st9{opacity:0.38;fill:#DEE2E7;}
	.st10{opacity:0.38;fill:none;stroke:#CED3D8;stroke-width:2.0366;stroke-miterlimit:10;}
	.st11{fill:#0066DE;}
	.st12{fill:#0042B6;}
	.st13{opacity:0.16;fill:#D3D4DD;}
	.st14{opacity:0.8;}
	.st15{opacity:0.63;clip-path:url(#XMLID_2_);fill:#E2E2E2;}
	.st16{opacity:0.63;clip-path:url(#XMLID_3_);fill:#E2E2E2;}
	.st17{clip-path:url(#XMLID_4_);fill:#00BDE6;}
	.st18{clip-path:url(#XMLID_4_);}
	.st19{clip-path:url(#XMLID_5_);fill:#00378C;}
	.st20{opacity:0.46;fill:url(#SVGID_1_);}
	.st21{clip-path:url(#XMLID_6_);fill:#00378C;}
	.st22{fill:#FFE083;}
	.st23{fill:#FF9600;}
</style>
<g>
	<g>
		<g>
			<path class="st0" d="M442.6,250.2c-14.6,10.1-22.2,16.4-23.5,1c-3.3-37.9-35.9-57.9-59.7-57.8"/>
			<g>
				<path class="st1" d="M347.2,186.7c-0.1-0.1,6,0.1,6,0.1l3.3,8.3l-5.5-4.4l-6.5,2.3l-12.8-2.9L347.2,186.7z"/>
				<polygon class="st2" points="331.7,190 356.5,195 351,190.7 				"/>
				<polygon class="st3" points="331.7,190 355.9,182 353.2,186.8 331.7,190 351,190.7 346.5,199 				"/>
			</g>
		</g>
		<g>
			<g>
				<path class="st4" d="M564.6,149.8h-19.8c-2.6,0-4.8-2.1-4.8-4.8l0,0c0-2.6,2.1-4.8,4.8-4.8h19.8c2.6,0,4.8,2.1,4.8,4.8l0,0
					C569.4,147.6,567.2,149.8,564.6,149.8z"/>
			</g>
			<g>
				<circle class="st5" cx="549.4" cy="145" r="1.2"/>
				<circle class="st5" cx="554.7" cy="145" r="1.2"/>
				<circle class="st5" cx="559.9" cy="145" r="1.2"/>
			</g>
		</g>
		<g>
			<circle class="st4" cx="357.6" cy="239.8" r="22.5"/>
			<g>
				<g>
					<polygon class="st5" points="348.4,245.2 353.6,240.1 348.4,236.3 					"/>
					<polygon class="st5" points="360.4,241 357.6,243.1 354.8,241 349.9,245.9 365.2,245.9 					"/>
					<polygon class="st5" points="361.6,240.1 366.8,245.2 366.8,236.3 					"/>
					<polygon class="st5" points="357.6,241.4 366.8,234.5 366.8,232.3 348.5,232.3 348.5,234.5 					"/>
				</g>
			</g>
		</g>
		<g>
			<g>
				<g>
					<g>
						<g>
							<g>
								<g>
									<path class="st6" d="M611.4,207.8h-35.9c-3.5,0-6.3-2.8-6.3-6.3v-33.4c0-2.6,2.1-4.8,4.8-4.8h37.4c2.6,0,4.8,2.1,4.8,4.8
										V203C616.2,205.6,614.1,207.8,611.4,207.8z"/>
								</g>
							</g>
						</g>
					</g>
				</g>
			</g>
			<g>
				<g>
					<polyline class="st7" points="599.7,172.3 603.9,172.9 592,180.6 589.7,177.6 580.9,182.8 					"/>
					<line class="st7" x1="602.4" y1="177" x2="603.9" y2="172.9"/>
				</g>
				<rect x="581.8" y="188.7" class="st5" width="4.2" height="8.3"/>
				<rect x="587.7" y="186.3" class="st5" width="4.2" height="10.7"/>
				<rect x="593.6" y="183.7" class="st5" width="4.2" height="13.3"/>
				<rect x="599.7" y="181.5" class="st5" width="4.2" height="15.5"/>
			</g>
		</g>
		<g>
			<g>
				<circle class="st1" cx="631.1" cy="253.5" r="20.6"/>
			</g>
			<path class="st5" d="M639.2,251.9l-1.3-0.2c-0.2-0.6-0.4-1.1-0.7-1.7l0.8-1.1c0.3-0.4,0.2-1-0.1-1.3l-0.8-0.8
				c-0.4-0.3-0.9-0.4-1.3-0.1l-1.1,0.8c-0.5-0.3-1.1-0.5-1.7-0.7l-0.2-1.4c-0.1-0.5-0.5-0.8-1-0.9h-1.2c-0.5,0-0.9,0.4-1,0.9
				l-0.2,1.3c-0.6,0.2-1.1,0.4-1.7,0.7l-1.1-0.7c-0.4-0.3-1-0.2-1.3,0.1l-0.8,0.8c-0.4,0.4-0.4,0.9-0.1,1.3l0.8,1.1
				c-0.3,0.5-0.5,1.1-0.7,1.7l-1.3,0.2c-0.5,0.1-0.9,0.5-0.9,1v1.1c0,0.5,0.4,0.9,0.9,1l1.3,0.2c0.2,0.6,0.4,1.1,0.7,1.7l-0.8,1.1
				c-0.3,0.4-0.2,1,0.1,1.3l0.8,0.8c0.4,0.4,0.9,0.4,1.3,0.1l1.1-0.8c0.5,0.3,1.1,0.5,1.7,0.7l0.2,1.3c0.1,0.5,0.5,0.9,1,0.9h1.1
				c0.5,0,0.9-0.4,1-0.9l0.2-1.3c0.6-0.2,1.1-0.4,1.7-0.7l1.1,0.8c0.4,0.3,1,0.2,1.3-0.1l0.8-0.8c0.4-0.4,0.4-0.9,0.1-1.3l-0.8-1.1
				c0.3-0.5,0.5-1.1,0.7-1.7l1.3-0.2c0.5-0.1,0.9-0.5,0.9-1v-1.1C640,252.4,639.7,252,639.2,251.9z M631.1,256.5
				c-1.7,0-3.1-1.4-3.1-3.1c0-1.7,1.4-3.1,3.1-3.1c1.7,0,3.1,1.4,3.1,3.1c0,0,0,0,0,0C634.2,255.1,632.8,256.5,631.1,256.5z"/>
		</g>
		<g>
			<g>
				<g>
					<g>
						<g>
							<g>
								<g>
									<path class="st1" d="M434.3,179.4h-44.5c-3.5,0-6.3-2.8-6.3-6.3v-32.3c0-2.6,2.1-4.8,4.8-4.8h46c2.6,0,4.8,2.1,4.8,4.8
										v33.8C439.1,177.2,436.9,179.4,434.3,179.4z"/>
								</g>
							</g>
						</g>
					</g>
				</g>
			</g>
			<g>
				<path class="st5" d="M425.1,147.1l-2.5-0.5c-0.1,0-0.1-0.1-0.2-0.2L422,144c-0.1-0.3-0.3-0.4-0.5-0.1l-3.6,3.6
					c-0.1,0.1-0.2,0.3-0.1,0.4l0.4,1.8l-8.4,8.3c-0.4,0.4-0.4,0.9,0,1.3c0.4,0.4,0.9,0.4,1.3,0l8.4-8.3l1.8,0.4c0.1,0,0.3,0,0.4-0.1
					l3.6-3.6C425.5,147.4,425.4,147.1,425.1,147.1z"/>
				<path class="st5" d="M413.3,153.1l1.6-1.6c0.1-0.1,0-0.1,0-0.2c-1.3-0.8-2.8-1.2-4.3-1.2c-2.2,0-4.3,0.8-6,2.5
					c-3.3,3.3-3.3,8.7,0,12c1.7,1.7,3.8,2.5,6,2.5c2.2,0,4.3-0.8,6-2.5c2.8-2.8,3.2-7,1.3-10.3c0-0.1-0.1-0.1-0.2,0l-1.6,1.6
					c-0.1,0.1-0.1,0.2,0,0.2c0.4,0.8,0.5,1.6,0.5,2.5c0,1.6-0.6,3.1-1.8,4.3c-1.1,1.1-2.7,1.8-4.3,1.8s-3.1-0.6-4.3-1.8
					c-2.4-2.4-2.4-6.2,0-8.6c1.1-1.1,2.7-1.8,4.3-1.8c0.9,0,1.7,0.2,2.5,0.5C413.1,153.2,413.2,153.2,413.3,153.1z"/>
				<path class="st5" d="M422.1,152.6l-1.6,1.6c-0.1,0.1-0.1,0.2,0,0.2c0.6,1.3,0.9,2.8,0.9,4.3c0,2.9-1.1,5.6-3.2,7.7
					c-2,2-4.8,3.2-7.7,3.2c-2.9,0-5.6-1.1-7.7-3.2c-4.2-4.2-4.2-11.1,0-15.3c2-2,4.8-3.2,7.7-3.2c1.5,0,2.9,0.3,4.3,0.9
					c0.1,0,0.2,0,0.2,0l1.6-1.6c0.1-0.1,0-0.1,0-0.2c-1.9-1-4-1.5-6.1-1.5c-3.4,0-6.8,1.3-9.4,3.9c-5.2,5.2-5.2,13.5,0,18.7
					c2.6,2.6,6,3.9,9.4,3.9c3.4,0,6.8-1.3,9.4-3.9c4.2-4.2,5-10.4,2.4-15.4C422.2,152.6,422.2,152.6,422.1,152.6z"/>
			</g>
		</g>
	</g>
	<g>
		<path class="st8" d="M368.8,323.1H365c-1,0-1.8-0.8-1.8-1.8v-3.5c0-1,0.8-1.8,1.8-1.8h3.8c1,0,1.8,0.8,1.8,1.8v3.5
			C370.5,322.3,369.7,323.1,368.8,323.1z"/>
		<path class="st6" d="M642.2,317.1h-41.1c-1,0-1.8-0.8-1.8-1.8l0,0c0-1,0.8-1.8,1.8-1.8h41.1c1,0,1.8,0.8,1.8,1.8l0,0
			C644,316.3,643.2,317.1,642.2,317.1z"/>
		<path class="st9" d="M548.2,182h-17.8c-1.5,0-2.8-1.2-2.8-2.8v0c0-1.5,1.2-2.8,2.8-2.8h17.8c1.5,0,2.8,1.2,2.8,2.8v0
			C551,180.7,549.8,182,548.2,182z"/>
		<path class="st9" d="M445.3,208.9h-25.7c-1.5,0-2.8-1.2-2.8-2.8l0,0c0-1.5,1.2-2.8,2.8-2.8h25.7c1.5,0,2.8,1.2,2.8,2.8l0,0
			C448.1,207.7,446.8,208.9,445.3,208.9z"/>
		<path class="st6" d="M360.7,294.5h-29.2c-0.9,0-1.7,0.8-1.7,1.7v0.2c0,0.9,0.8,1.7,1.7,1.7h29.2c0.9,0,1.7-0.8,1.7-1.7v-0.2
			C362.4,295.2,361.7,294.5,360.7,294.5z"/>
		<path class="st1" d="M622.7,297.5h-14.9c-0.9,0-1.7,0.8-1.7,1.7v0.2c0,0.9,0.8,1.7,1.7,1.7h14.9c0.9,0,1.7-0.8,1.7-1.7v-0.2
			C624.4,298.3,623.6,297.5,622.7,297.5z"/>
		<circle class="st6" cx="644" cy="205.8" r="2.9"/>
		<circle class="st1" cx="515.5" cy="120.4" r="2.9"/>
		<circle class="st10" cx="632.5" cy="144.2" r="4.1"/>
		<circle class="st10" cx="317.6" cy="325.5" r="4.1"/>
		<circle class="st9" cx="351.9" cy="154.9" r="3.4"/>
		<circle class="st9" cx="658.6" cy="290.4" r="3.4"/>
	</g>
</g>
<g>
	<g>
		<path class="st11" d="M588,374.2l-189,0.1c-7.2,0-13-5.8-13-12.9l0,0l214.9-0.2l0,0C601,368.4,595.2,374.2,588,374.2z"/>
		<path class="st8" d="M588,369.8l-189,0.1c-5.6,0-10.3-3.5-12.2-8.5l-0.8,0c0,7.2,5.8,13,13,12.9l189-0.1c7.2,0,13-5.8,12.9-13
			l-0.8,0C598.4,366.2,593.6,369.8,588,369.8z"/>
		<path class="st12" d="M505.8,365.7l-24.4,0c-2.4,0-4.3-1.9-4.3-4.3l0,0l33.1,0l0,0C510.1,363.7,508.2,365.7,505.8,365.7z"/>
	</g>
	<g>
		<path class="st8" d="M589.9,361.3l-192.8,0.2l-0.1-116.3c0-6.7,5.4-12.1,12.1-12.1l168.6-0.1c6.7,0,12.1,5.4,12.1,12.1
			L589.9,361.3z"/>
		<rect x="407.2" y="243" class="st5" width="172.7" height="108.3"/>
		<rect x="407.2" y="340.9" class="st13" width="172.7" height="10.4"/>
		<rect x="407.1" y="243" class="st13" width="172.7" height="5.1"/>
		<g class="st14">
			<polygon class="st9" points="464.7,243 407.2,300.6 407.2,351.4 407.3,351.4 515.6,242.9 			"/>
			<polygon class="st9" points="423.3,351.3 454.9,351.3 563.1,242.9 531.5,242.9 			"/>
			<polygon class="st9" points="559.6,351.2 579.9,330.9 579.8,299.3 528,351.3 			"/>
		</g>
	</g>
</g>
<g>
	<g>
		<polygon class="st4" points="480.1,269.6 480.7,277.4 502.5,277.4 503.7,269.9 		"/>
		<g>
			<defs>
				<path id="XMLID_11_" d="M469.3,201.7L458.9,217c-3.7,5.5-5.7,12-5.8,18.7l-0.1,25.2l22-23.3L469.3,201.7z"/>
			</defs>
			<use xlink:href="#XMLID_11_"  style="overflow:visible;fill:#0042B6;"/>
			<clipPath id="XMLID_2_">
				<use xlink:href="#XMLID_11_"  style="overflow:visible;"/>
			</clipPath>
			<path class="st15" d="M469.1,196.5c0,0-10.7,34-5.1,58.7l11.5-13.7l-3.3-42.2L469.1,196.5z"/>
		</g>
		<g>
			<defs>
				<path id="XMLID_10_" d="M514.2,201.8l10.3,15.4c3.7,5.5,5.7,12,5.6,18.7l-0.1,25.2l-21.9-23.5L514.2,201.8z"/>
			</defs>
			<use xlink:href="#XMLID_10_"  style="overflow:visible;fill:#0042B6;"/>
			<clipPath id="XMLID_3_">
				<use xlink:href="#XMLID_10_"  style="overflow:visible;"/>
			</clipPath>
			<path class="st16" d="M512,190.2c0,0,12.1,37.8,8,65.3L505.1,236l6.3-36.3L512,190.2z"/>
		</g>
		<g>
			<defs>
				<path id="XMLID_8_" d="M490.7,126.5c0,0-13,23.3-20,65.3s-0.9,66.5-0.9,66.5h44.2C514.1,258.3,525,183,490.7,126.5z"/>
			</defs>
			<use xlink:href="#XMLID_8_"  style="overflow:visible;fill:#06D2FF;"/>
			<clipPath id="XMLID_4_">
				<use xlink:href="#XMLID_8_"  style="overflow:visible;"/>
			</clipPath>
			<polygon class="st17" points="490.5,122.4 490.1,264.1 534.8,265.3 518.5,127.4 			"/>
			<g class="st18">
				<defs>
					<polygon id="XMLID_12_" points="509.2,144 475.7,143.3 490,122.8 					"/>
				</defs>
				<use xlink:href="#XMLID_12_"  style="overflow:visible;fill:#0042B6;"/>
				<clipPath id="XMLID_5_">
					<use xlink:href="#XMLID_12_"  style="overflow:visible;"/>
				</clipPath>
				<polygon class="st19" points="490.9,117.7 490.4,148.7 505.4,145.7 				"/>
			</g>
		</g>
		<g>
			<circle class="st5" cx="491.4" cy="192.9" r="14.1"/>
			<circle class="st12" cx="491.2" cy="192.9" r="9.2"/>
			
				<linearGradient id="SVGID_1_" gradientUnits="userSpaceOnUse" x1="431.3081" y1="169.2784" x2="449.7346" y2="169.2784" gradientTransform="matrix(-0.6123 -0.7906 0.7906 -0.6123 627.0923 644.7989)">
				<stop  offset="0.142" style="stop-color:#001274"/>
				<stop  offset="0.3221" style="stop-color:#001777;stop-opacity:0.6855"/>
				<stop  offset="0.5457" style="stop-color:#002781;stop-opacity:0.295"/>
				<stop  offset="0.7146" style="stop-color:#00378C;stop-opacity:0"/>
			</linearGradient>
			<circle class="st20" cx="491.2" cy="192.9" r="9.2"/>
		</g>
		<g>
			<defs>
				<polygon id="XMLID_9_" points="478.8,258.3 505.1,258.3 507.1,271.7 476.7,271.6 				"/>
			</defs>
			<use xlink:href="#XMLID_9_"  style="overflow:visible;fill:#0042B6;"/>
			<clipPath id="XMLID_6_">
				<use xlink:href="#XMLID_9_"  style="overflow:visible;"/>
			</clipPath>
			<polygon class="st21" points="490.1,257 490.6,275.3 513.3,273.8 509.8,258.4 			"/>
		</g>
	</g>
	<g>
		<g>
			<g>
				<g>
					<polygon class="st6" points="480.6,277.4 462.6,351.3 520.5,351.2 502.4,277.4 					"/>
					<polygon class="st22" points="485.4,277.4 476.7,351.4 506.6,351.3 497.5,277.4 					"/>
				</g>
				<g>
					<path class="st23" d="M485.7,277.4c0,0-10.6,20.1,6,37c0,0,15.6-12.1,6-37H485.7z"/>
					<path class="st6" d="M487.4,277.4c0,0-6.8,14.6,4.5,24.7c0,0,9.8-7.8,4.1-24.7H487.4z"/>
					<path class="st23" d="M488.8,277.4c0,0-4.1,8.9,2.8,15.1c0,0,6-4.8,2.5-15.1H488.8z"/>
				</g>
			</g>
		</g>
		<g>
			<circle class="st6" cx="450" cy="333.7" r="4.9"/>
			<circle class="st6" cx="527.7" cy="327.9" r="3.5"/>
			<circle class="st6" cx="456.7" cy="341.6" r="1.9"/>
			<circle class="st6" cx="525.7" cy="340.6" r="1.9"/>
			<circle class="st6" cx="540.3" cy="339.8" r="1.9"/>
			<circle class="st6" cx="441.6" cy="345.1" r="1.9"/>
		</g>
	</g>
</g>
</svg>
